<mxfile host="app.diagrams.net" modified="2021-07-31T08:38:09.054Z" agent="5.0 (Macintosh; Intel Mac OS X 10_15_7) AppleWebKit/537.36 (KHTML, like Gecko) Chrome/91.0.4472.124 Safari/537.36 Edg/91.0.864.67" etag="Qlaw8gxB69HZVnYjmfiU" version="14.8.5" type="github" pages="2">
  <diagram id="ha3NaFHCnZJ82upUzwdx" name="Privilege">
    <mxGraphModel dx="1799" dy="656" grid="1" gridSize="10" guides="1" tooltips="1" connect="1" arrows="1" fold="1" page="1" pageScale="1" pageWidth="827" pageHeight="1169" math="0" shadow="0">
      <root>
        <mxCell id="0" />
        <mxCell id="1" parent="0" />
        <mxCell id="1JHDGCW7Y8DDq5o6FEUX-62" value="" style="rounded=0;whiteSpace=wrap;html=1;fillColor=#fff2cc;strokeColor=#d6b656;" vertex="1" parent="1">
          <mxGeometry x="-80" y="200" width="1186" height="388" as="geometry" />
        </mxCell>
        <mxCell id="1JHDGCW7Y8DDq5o6FEUX-71" value="" style="rounded=0;whiteSpace=wrap;html=1;rotation=90;fillColor=#fff2cc;strokeColor=#d6b656;" vertex="1" parent="1">
          <mxGeometry x="475.91" y="-230" width="73.44" height="1184.03" as="geometry" />
        </mxCell>
        <mxCell id="1JHDGCW7Y8DDq5o6FEUX-10" value="" style="rounded=0;whiteSpace=wrap;html=1;dashed=1;fillColor=#d5e8d4;strokeColor=#82b366;" vertex="1" parent="1">
          <mxGeometry x="-66" y="416" width="260" height="160" as="geometry" />
        </mxCell>
        <mxCell id="1JHDGCW7Y8DDq5o6FEUX-17" style="rounded=0;orthogonalLoop=1;jettySize=auto;html=1;entryX=0.5;entryY=1;entryDx=0;entryDy=0;" edge="1" parent="1" source="1JHDGCW7Y8DDq5o6FEUX-1" target="1JHDGCW7Y8DDq5o6FEUX-3">
          <mxGeometry relative="1" as="geometry" />
        </mxCell>
        <mxCell id="1JHDGCW7Y8DDq5o6FEUX-1" value="ResourceA 1" style="rounded=1;whiteSpace=wrap;html=1;" vertex="1" parent="1">
          <mxGeometry x="-50" y="530" width="90" height="30" as="geometry" />
        </mxCell>
        <mxCell id="1JHDGCW7Y8DDq5o6FEUX-52" style="edgeStyle=none;rounded=0;orthogonalLoop=1;jettySize=auto;html=1;exitX=0.5;exitY=0;exitDx=0;exitDy=0;" edge="1" parent="1" source="1JHDGCW7Y8DDq5o6FEUX-3" target="1JHDGCW7Y8DDq5o6FEUX-4">
          <mxGeometry relative="1" as="geometry" />
        </mxCell>
        <mxCell id="1JHDGCW7Y8DDq5o6FEUX-3" value="Role A" style="rounded=1;whiteSpace=wrap;html=1;" vertex="1" parent="1">
          <mxGeometry x="-10" y="430" width="130" height="30" as="geometry" />
        </mxCell>
        <mxCell id="1JHDGCW7Y8DDq5o6FEUX-56" style="edgeStyle=none;rounded=0;orthogonalLoop=1;jettySize=auto;html=1;exitX=0.5;exitY=0;exitDx=0;exitDy=0;entryX=0.362;entryY=1.06;entryDx=0;entryDy=0;entryPerimeter=0;" edge="1" parent="1" source="1JHDGCW7Y8DDq5o6FEUX-4" target="1JHDGCW7Y8DDq5o6FEUX-51">
          <mxGeometry relative="1" as="geometry" />
        </mxCell>
        <mxCell id="1JHDGCW7Y8DDq5o6FEUX-4" value="Package A" style="rounded=1;whiteSpace=wrap;html=1;fillColor=#b1ddf0;strokeColor=#10739e;" vertex="1" parent="1">
          <mxGeometry x="-40" y="330" width="460" height="50" as="geometry" />
        </mxCell>
        <mxCell id="1JHDGCW7Y8DDq5o6FEUX-18" style="edgeStyle=none;rounded=0;orthogonalLoop=1;jettySize=auto;html=1;" edge="1" parent="1" source="1JHDGCW7Y8DDq5o6FEUX-5" target="1JHDGCW7Y8DDq5o6FEUX-3">
          <mxGeometry relative="1" as="geometry" />
        </mxCell>
        <mxCell id="1JHDGCW7Y8DDq5o6FEUX-5" value="ResourceA n" style="rounded=1;whiteSpace=wrap;html=1;" vertex="1" parent="1">
          <mxGeometry x="90" y="530" width="90" height="30" as="geometry" />
        </mxCell>
        <mxCell id="1JHDGCW7Y8DDq5o6FEUX-14" value="Product A" style="text;html=1;align=center;verticalAlign=middle;resizable=0;points=[];autosize=1;strokeColor=none;" vertex="1" parent="1">
          <mxGeometry x="29" y="400" width="70" height="20" as="geometry" />
        </mxCell>
        <mxCell id="1JHDGCW7Y8DDq5o6FEUX-16" value="&lt;font style=&quot;font-size: 18px&quot;&gt;...&lt;/font&gt;" style="text;html=1;align=center;verticalAlign=middle;resizable=0;points=[];autosize=1;strokeColor=none;" vertex="1" parent="1">
          <mxGeometry x="200" y="470" width="30" height="20" as="geometry" />
        </mxCell>
        <mxCell id="1JHDGCW7Y8DDq5o6FEUX-19" value="&lt;font style=&quot;font-size: 18px&quot;&gt;...&lt;/font&gt;" style="text;html=1;align=center;verticalAlign=middle;resizable=0;points=[];autosize=1;strokeColor=none;" vertex="1" parent="1">
          <mxGeometry x="49" y="535" width="30" height="20" as="geometry" />
        </mxCell>
        <mxCell id="1JHDGCW7Y8DDq5o6FEUX-23" value="" style="rounded=0;whiteSpace=wrap;html=1;dashed=1;fillColor=#d5e8d4;strokeColor=#82b366;" vertex="1" parent="1">
          <mxGeometry x="240" y="416" width="260" height="160" as="geometry" />
        </mxCell>
        <mxCell id="1JHDGCW7Y8DDq5o6FEUX-24" style="rounded=0;orthogonalLoop=1;jettySize=auto;html=1;entryX=0.5;entryY=1;entryDx=0;entryDy=0;" edge="1" parent="1" source="1JHDGCW7Y8DDq5o6FEUX-25" target="1JHDGCW7Y8DDq5o6FEUX-26">
          <mxGeometry relative="1" as="geometry" />
        </mxCell>
        <mxCell id="1JHDGCW7Y8DDq5o6FEUX-25" value="ResourceB 1" style="rounded=1;whiteSpace=wrap;html=1;" vertex="1" parent="1">
          <mxGeometry x="256" y="530" width="90" height="30" as="geometry" />
        </mxCell>
        <mxCell id="1JHDGCW7Y8DDq5o6FEUX-53" style="edgeStyle=none;rounded=0;orthogonalLoop=1;jettySize=auto;html=1;exitX=0.5;exitY=0;exitDx=0;exitDy=0;entryX=0.609;entryY=1;entryDx=0;entryDy=0;entryPerimeter=0;" edge="1" parent="1" source="1JHDGCW7Y8DDq5o6FEUX-26" target="1JHDGCW7Y8DDq5o6FEUX-4">
          <mxGeometry relative="1" as="geometry" />
        </mxCell>
        <mxCell id="1JHDGCW7Y8DDq5o6FEUX-26" value="Role B" style="rounded=1;whiteSpace=wrap;html=1;" vertex="1" parent="1">
          <mxGeometry x="296" y="430" width="130" height="30" as="geometry" />
        </mxCell>
        <mxCell id="1JHDGCW7Y8DDq5o6FEUX-27" style="edgeStyle=none;rounded=0;orthogonalLoop=1;jettySize=auto;html=1;" edge="1" parent="1" source="1JHDGCW7Y8DDq5o6FEUX-28" target="1JHDGCW7Y8DDq5o6FEUX-26">
          <mxGeometry relative="1" as="geometry" />
        </mxCell>
        <mxCell id="1JHDGCW7Y8DDq5o6FEUX-28" value="ResourceB n" style="rounded=1;whiteSpace=wrap;html=1;" vertex="1" parent="1">
          <mxGeometry x="396" y="530" width="90" height="30" as="geometry" />
        </mxCell>
        <mxCell id="1JHDGCW7Y8DDq5o6FEUX-29" value="Product B" style="text;html=1;align=center;verticalAlign=middle;resizable=0;points=[];autosize=1;strokeColor=none;" vertex="1" parent="1">
          <mxGeometry x="335" y="400" width="70" height="20" as="geometry" />
        </mxCell>
        <mxCell id="1JHDGCW7Y8DDq5o6FEUX-30" value="&lt;font style=&quot;font-size: 18px&quot;&gt;...&lt;/font&gt;" style="text;html=1;align=center;verticalAlign=middle;resizable=0;points=[];autosize=1;strokeColor=none;" vertex="1" parent="1">
          <mxGeometry x="480" y="345" width="30" height="20" as="geometry" />
        </mxCell>
        <mxCell id="1JHDGCW7Y8DDq5o6FEUX-31" value="&lt;font style=&quot;font-size: 18px&quot;&gt;...&lt;/font&gt;" style="text;html=1;align=center;verticalAlign=middle;resizable=0;points=[];autosize=1;strokeColor=none;" vertex="1" parent="1">
          <mxGeometry x="355" y="535" width="30" height="20" as="geometry" />
        </mxCell>
        <mxCell id="1JHDGCW7Y8DDq5o6FEUX-32" value="" style="rounded=0;whiteSpace=wrap;html=1;dashed=1;fillColor=#d5e8d4;strokeColor=#82b366;" vertex="1" parent="1">
          <mxGeometry x="540" y="421" width="260" height="160" as="geometry" />
        </mxCell>
        <mxCell id="1JHDGCW7Y8DDq5o6FEUX-33" style="rounded=0;orthogonalLoop=1;jettySize=auto;html=1;entryX=0.5;entryY=1;entryDx=0;entryDy=0;" edge="1" parent="1" source="1JHDGCW7Y8DDq5o6FEUX-34" target="1JHDGCW7Y8DDq5o6FEUX-35">
          <mxGeometry relative="1" as="geometry" />
        </mxCell>
        <mxCell id="1JHDGCW7Y8DDq5o6FEUX-34" value="ResourceA 1" style="rounded=1;whiteSpace=wrap;html=1;" vertex="1" parent="1">
          <mxGeometry x="556" y="535" width="90" height="30" as="geometry" />
        </mxCell>
        <mxCell id="1JHDGCW7Y8DDq5o6FEUX-54" style="edgeStyle=none;rounded=0;orthogonalLoop=1;jettySize=auto;html=1;exitX=0.5;exitY=0;exitDx=0;exitDy=0;" edge="1" parent="1" source="1JHDGCW7Y8DDq5o6FEUX-35" target="1JHDGCW7Y8DDq5o6FEUX-36">
          <mxGeometry relative="1" as="geometry" />
        </mxCell>
        <mxCell id="1JHDGCW7Y8DDq5o6FEUX-35" value="Role A" style="rounded=1;whiteSpace=wrap;html=1;" vertex="1" parent="1">
          <mxGeometry x="596" y="435" width="130" height="30" as="geometry" />
        </mxCell>
        <mxCell id="1JHDGCW7Y8DDq5o6FEUX-57" style="edgeStyle=none;rounded=0;orthogonalLoop=1;jettySize=auto;html=1;exitX=0.5;exitY=0;exitDx=0;exitDy=0;entryX=0.62;entryY=0.98;entryDx=0;entryDy=0;entryPerimeter=0;" edge="1" parent="1" source="1JHDGCW7Y8DDq5o6FEUX-36" target="1JHDGCW7Y8DDq5o6FEUX-51">
          <mxGeometry relative="1" as="geometry" />
        </mxCell>
        <mxCell id="1JHDGCW7Y8DDq5o6FEUX-36" value="Package M" style="rounded=1;whiteSpace=wrap;html=1;fillColor=#b1ddf0;strokeColor=#10739e;" vertex="1" parent="1">
          <mxGeometry x="566" y="335" width="460" height="50" as="geometry" />
        </mxCell>
        <mxCell id="1JHDGCW7Y8DDq5o6FEUX-37" style="edgeStyle=none;rounded=0;orthogonalLoop=1;jettySize=auto;html=1;" edge="1" parent="1" source="1JHDGCW7Y8DDq5o6FEUX-38" target="1JHDGCW7Y8DDq5o6FEUX-35">
          <mxGeometry relative="1" as="geometry" />
        </mxCell>
        <mxCell id="1JHDGCW7Y8DDq5o6FEUX-38" value="ResourceA n" style="rounded=1;whiteSpace=wrap;html=1;" vertex="1" parent="1">
          <mxGeometry x="696" y="535" width="90" height="30" as="geometry" />
        </mxCell>
        <mxCell id="1JHDGCW7Y8DDq5o6FEUX-39" value="Product A" style="text;html=1;align=center;verticalAlign=middle;resizable=0;points=[];autosize=1;strokeColor=none;" vertex="1" parent="1">
          <mxGeometry x="635" y="405" width="70" height="20" as="geometry" />
        </mxCell>
        <mxCell id="1JHDGCW7Y8DDq5o6FEUX-40" value="&lt;font style=&quot;font-size: 18px&quot;&gt;...&lt;/font&gt;" style="text;html=1;align=center;verticalAlign=middle;resizable=0;points=[];autosize=1;strokeColor=none;" vertex="1" parent="1">
          <mxGeometry x="806" y="475" width="30" height="20" as="geometry" />
        </mxCell>
        <mxCell id="1JHDGCW7Y8DDq5o6FEUX-41" value="&lt;font style=&quot;font-size: 18px&quot;&gt;...&lt;/font&gt;" style="text;html=1;align=center;verticalAlign=middle;resizable=0;points=[];autosize=1;strokeColor=none;" vertex="1" parent="1">
          <mxGeometry x="655" y="540" width="30" height="20" as="geometry" />
        </mxCell>
        <mxCell id="1JHDGCW7Y8DDq5o6FEUX-42" value="" style="rounded=0;whiteSpace=wrap;html=1;dashed=1;fillColor=#d5e8d4;strokeColor=#82b366;" vertex="1" parent="1">
          <mxGeometry x="846" y="421" width="260" height="160" as="geometry" />
        </mxCell>
        <mxCell id="1JHDGCW7Y8DDq5o6FEUX-43" style="rounded=0;orthogonalLoop=1;jettySize=auto;html=1;entryX=0.5;entryY=1;entryDx=0;entryDy=0;" edge="1" parent="1" source="1JHDGCW7Y8DDq5o6FEUX-44" target="1JHDGCW7Y8DDq5o6FEUX-45">
          <mxGeometry relative="1" as="geometry" />
        </mxCell>
        <mxCell id="1JHDGCW7Y8DDq5o6FEUX-44" value="ResourceN 1" style="rounded=1;whiteSpace=wrap;html=1;" vertex="1" parent="1">
          <mxGeometry x="862" y="535" width="90" height="30" as="geometry" />
        </mxCell>
        <mxCell id="1JHDGCW7Y8DDq5o6FEUX-55" style="edgeStyle=none;rounded=0;orthogonalLoop=1;jettySize=auto;html=1;exitX=0.5;exitY=0;exitDx=0;exitDy=0;" edge="1" parent="1" source="1JHDGCW7Y8DDq5o6FEUX-45" target="1JHDGCW7Y8DDq5o6FEUX-36">
          <mxGeometry relative="1" as="geometry" />
        </mxCell>
        <mxCell id="1JHDGCW7Y8DDq5o6FEUX-45" value="Role N" style="rounded=1;whiteSpace=wrap;html=1;" vertex="1" parent="1">
          <mxGeometry x="902" y="435" width="130" height="30" as="geometry" />
        </mxCell>
        <mxCell id="1JHDGCW7Y8DDq5o6FEUX-46" style="edgeStyle=none;rounded=0;orthogonalLoop=1;jettySize=auto;html=1;" edge="1" parent="1" source="1JHDGCW7Y8DDq5o6FEUX-47" target="1JHDGCW7Y8DDq5o6FEUX-45">
          <mxGeometry relative="1" as="geometry" />
        </mxCell>
        <mxCell id="1JHDGCW7Y8DDq5o6FEUX-47" value="ResourceN n" style="rounded=1;whiteSpace=wrap;html=1;" vertex="1" parent="1">
          <mxGeometry x="1002" y="535" width="90" height="30" as="geometry" />
        </mxCell>
        <mxCell id="1JHDGCW7Y8DDq5o6FEUX-48" value="Product N" style="text;html=1;align=center;verticalAlign=middle;resizable=0;points=[];autosize=1;strokeColor=none;" vertex="1" parent="1">
          <mxGeometry x="941" y="405" width="70" height="20" as="geometry" />
        </mxCell>
        <mxCell id="1JHDGCW7Y8DDq5o6FEUX-50" value="&lt;font style=&quot;font-size: 18px&quot;&gt;...&lt;/font&gt;" style="text;html=1;align=center;verticalAlign=middle;resizable=0;points=[];autosize=1;strokeColor=none;" vertex="1" parent="1">
          <mxGeometry x="961" y="540" width="30" height="20" as="geometry" />
        </mxCell>
        <mxCell id="1JHDGCW7Y8DDq5o6FEUX-51" value="Privilege A" style="rounded=1;whiteSpace=wrap;html=1;fillColor=#bac8d3;strokeColor=#23445d;" vertex="1" parent="1">
          <mxGeometry x="-69.03" y="230" width="1166" height="50" as="geometry" />
        </mxCell>
        <mxCell id="1JHDGCW7Y8DDq5o6FEUX-60" value="Developer" style="rounded=0;whiteSpace=wrap;html=1;rotation=90;fillColor=#d5e8d4;strokeColor=#82b366;" vertex="1" parent="1">
          <mxGeometry x="-194.87" y="473.63" width="190.25" height="40" as="geometry" />
        </mxCell>
        <mxCell id="1JHDGCW7Y8DDq5o6FEUX-63" style="edgeStyle=none;rounded=0;orthogonalLoop=1;jettySize=auto;html=1;exitX=0.5;exitY=0;exitDx=0;exitDy=0;" edge="1" parent="1" source="1JHDGCW7Y8DDq5o6FEUX-62" target="1JHDGCW7Y8DDq5o6FEUX-62">
          <mxGeometry relative="1" as="geometry" />
        </mxCell>
        <mxCell id="1JHDGCW7Y8DDq5o6FEUX-64" value="Company Privilege" style="rounded=0;whiteSpace=wrap;html=1;fillColor=#fff2cc;strokeColor=#d6b656;" vertex="1" parent="1">
          <mxGeometry x="-80" y="170" width="1186" height="30" as="geometry" />
        </mxCell>
        <mxCell id="1JHDGCW7Y8DDq5o6FEUX-65" value="PM" style="rounded=0;whiteSpace=wrap;html=1;rotation=90;fillColor=#b1ddf0;strokeColor=#10739e;" vertex="1" parent="1">
          <mxGeometry x="-137.47" y="341.41" width="75.44" height="40" as="geometry" />
        </mxCell>
        <mxCell id="1JHDGCW7Y8DDq5o6FEUX-66" value="CS" style="rounded=0;whiteSpace=wrap;html=1;rotation=90;fillColor=#bac8d3;strokeColor=#23445d;" vertex="1" parent="1">
          <mxGeometry x="-161.93" y="242.94" width="124.62" height="40" as="geometry" />
        </mxCell>
      </root>
    </mxGraphModel>
  </diagram>
  <diagram id="8Ztrja5mllns9veJtsKz" name="Company Privilege Contract">
    <mxGraphModel dx="923" dy="623" grid="1" gridSize="10" guides="1" tooltips="1" connect="1" arrows="1" fold="1" page="1" pageScale="1" pageWidth="827" pageHeight="1169" math="0" shadow="0">
      <root>
        <mxCell id="rPtY3Esqq6ZF7neWnj23-0" />
        <mxCell id="rPtY3Esqq6ZF7neWnj23-1" parent="rPtY3Esqq6ZF7neWnj23-0" />
        <mxCell id="VEWR9VQ0BqVSCsnpz4Ri-4" value="" style="rounded=1;whiteSpace=wrap;html=1;" vertex="1" parent="rPtY3Esqq6ZF7neWnj23-1">
          <mxGeometry x="80" y="380" width="270" height="60" as="geometry" />
        </mxCell>
        <mxCell id="VEWR9VQ0BqVSCsnpz4Ri-0" value="Company Privilege Contracts" style="rounded=1;whiteSpace=wrap;html=1;" vertex="1" parent="rPtY3Esqq6ZF7neWnj23-1">
          <mxGeometry x="34" y="200" width="770" height="40" as="geometry" />
        </mxCell>
        <mxCell id="VEWR9VQ0BqVSCsnpz4Ri-2" value="&lt;span&gt;Company Privilege Contract A&lt;/span&gt;" style="text;html=1;align=center;verticalAlign=middle;resizable=0;points=[];autosize=1;strokeColor=none;" vertex="1" parent="rPtY3Esqq6ZF7neWnj23-1">
          <mxGeometry x="130" y="360" width="180" height="20" as="geometry" />
        </mxCell>
        <mxCell id="VEWR9VQ0BqVSCsnpz4Ri-3" value="Seats: s1" style="rounded=0;whiteSpace=wrap;html=1;" vertex="1" parent="rPtY3Esqq6ZF7neWnj23-1">
          <mxGeometry x="80" y="395" width="50" height="30" as="geometry" />
        </mxCell>
        <mxCell id="VEWR9VQ0BqVSCsnpz4Ri-5" value="Concurrency:&lt;br&gt;c1" style="rounded=0;whiteSpace=wrap;html=1;" vertex="1" parent="rPtY3Esqq6ZF7neWnj23-1">
          <mxGeometry x="130" y="395" width="80" height="30" as="geometry" />
        </mxCell>
        <mxCell id="VEWR9VQ0BqVSCsnpz4Ri-6" value="LimitationWays" style="rounded=0;whiteSpace=wrap;html=1;" vertex="1" parent="rPtY3Esqq6ZF7neWnj23-1">
          <mxGeometry x="260" y="395" width="90" height="30" as="geometry" />
        </mxCell>
        <mxCell id="VEWR9VQ0BqVSCsnpz4Ri-7" value="..." style="rounded=0;whiteSpace=wrap;html=1;" vertex="1" parent="rPtY3Esqq6ZF7neWnj23-1">
          <mxGeometry x="210" y="395" width="50" height="30" as="geometry" />
        </mxCell>
        <mxCell id="VEWR9VQ0BqVSCsnpz4Ri-9" value="" style="endArrow=none;html=1;" edge="1" parent="rPtY3Esqq6ZF7neWnj23-1">
          <mxGeometry width="50" height="50" relative="1" as="geometry">
            <mxPoint x="40" y="290" as="sourcePoint" />
            <mxPoint x="800" y="290" as="targetPoint" />
          </mxGeometry>
        </mxCell>
        <mxCell id="VEWR9VQ0BqVSCsnpz4Ri-10" value="" style="endArrow=none;dashed=1;html=1;dashPattern=1 3;strokeWidth=2;exitX=0.457;exitY=1.1;exitDx=0;exitDy=0;exitPerimeter=0;" edge="1" parent="rPtY3Esqq6ZF7neWnj23-1" source="VEWR9VQ0BqVSCsnpz4Ri-36">
          <mxGeometry width="50" height="50" relative="1" as="geometry">
            <mxPoint x="20" y="370" as="sourcePoint" />
            <mxPoint x="80" y="290" as="targetPoint" />
          </mxGeometry>
        </mxCell>
        <mxCell id="VEWR9VQ0BqVSCsnpz4Ri-11" value="BeginAt A" style="text;html=1;align=center;verticalAlign=middle;resizable=0;points=[];autosize=1;strokeColor=none;" vertex="1" parent="rPtY3Esqq6ZF7neWnj23-1">
          <mxGeometry x="45" y="270" width="70" height="20" as="geometry" />
        </mxCell>
        <mxCell id="VEWR9VQ0BqVSCsnpz4Ri-12" value="" style="endArrow=none;dashed=1;html=1;dashPattern=1 3;strokeWidth=2;exitX=0.717;exitY=1.2;exitDx=0;exitDy=0;exitPerimeter=0;" edge="1" parent="rPtY3Esqq6ZF7neWnj23-1" source="VEWR9VQ0BqVSCsnpz4Ri-37">
          <mxGeometry width="50" height="50" relative="1" as="geometry">
            <mxPoint x="349" y="810" as="sourcePoint" />
            <mxPoint x="349" y="290" as="targetPoint" />
          </mxGeometry>
        </mxCell>
        <mxCell id="VEWR9VQ0BqVSCsnpz4Ri-13" value="EndAt A" style="text;html=1;align=center;verticalAlign=middle;resizable=0;points=[];autosize=1;strokeColor=none;" vertex="1" parent="rPtY3Esqq6ZF7neWnj23-1">
          <mxGeometry x="305" y="270" width="60" height="20" as="geometry" />
        </mxCell>
        <mxCell id="VEWR9VQ0BqVSCsnpz4Ri-14" value="" style="rounded=1;whiteSpace=wrap;html=1;" vertex="1" parent="rPtY3Esqq6ZF7neWnj23-1">
          <mxGeometry x="250" y="490" width="270" height="60" as="geometry" />
        </mxCell>
        <mxCell id="VEWR9VQ0BqVSCsnpz4Ri-15" value="&lt;span&gt;Company Privilege Contract B&lt;/span&gt;" style="text;html=1;align=center;verticalAlign=middle;resizable=0;points=[];autosize=1;strokeColor=none;" vertex="1" parent="rPtY3Esqq6ZF7neWnj23-1">
          <mxGeometry x="300" y="470" width="180" height="20" as="geometry" />
        </mxCell>
        <mxCell id="VEWR9VQ0BqVSCsnpz4Ri-16" value="Seats:&lt;br&gt;s2" style="rounded=0;whiteSpace=wrap;html=1;" vertex="1" parent="rPtY3Esqq6ZF7neWnj23-1">
          <mxGeometry x="250" y="505" width="50" height="30" as="geometry" />
        </mxCell>
        <mxCell id="VEWR9VQ0BqVSCsnpz4Ri-17" value="Concurrency:&lt;br&gt;c2" style="rounded=0;whiteSpace=wrap;html=1;" vertex="1" parent="rPtY3Esqq6ZF7neWnj23-1">
          <mxGeometry x="300" y="505" width="80" height="30" as="geometry" />
        </mxCell>
        <mxCell id="VEWR9VQ0BqVSCsnpz4Ri-18" value="LimitationWays" style="rounded=0;whiteSpace=wrap;html=1;" vertex="1" parent="rPtY3Esqq6ZF7neWnj23-1">
          <mxGeometry x="430" y="505" width="90" height="30" as="geometry" />
        </mxCell>
        <mxCell id="VEWR9VQ0BqVSCsnpz4Ri-19" value="..." style="rounded=0;whiteSpace=wrap;html=1;" vertex="1" parent="rPtY3Esqq6ZF7neWnj23-1">
          <mxGeometry x="380" y="505" width="50" height="30" as="geometry" />
        </mxCell>
        <mxCell id="VEWR9VQ0BqVSCsnpz4Ri-20" value="" style="endArrow=none;dashed=1;html=1;dashPattern=1 3;strokeWidth=2;exitX=0.571;exitY=1.1;exitDx=0;exitDy=0;exitPerimeter=0;" edge="1" parent="rPtY3Esqq6ZF7neWnj23-1" source="VEWR9VQ0BqVSCsnpz4Ri-38">
          <mxGeometry width="50" height="50" relative="1" as="geometry">
            <mxPoint x="255" y="480" as="sourcePoint" />
            <mxPoint x="250" y="290" as="targetPoint" />
          </mxGeometry>
        </mxCell>
        <mxCell id="VEWR9VQ0BqVSCsnpz4Ri-21" value="" style="rounded=1;whiteSpace=wrap;html=1;" vertex="1" parent="rPtY3Esqq6ZF7neWnj23-1">
          <mxGeometry x="520" y="580" width="270" height="60" as="geometry" />
        </mxCell>
        <mxCell id="VEWR9VQ0BqVSCsnpz4Ri-22" value="&lt;span&gt;Company Privilege Contract C&lt;/span&gt;" style="text;html=1;align=center;verticalAlign=middle;resizable=0;points=[];autosize=1;strokeColor=none;" vertex="1" parent="rPtY3Esqq6ZF7neWnj23-1">
          <mxGeometry x="570" y="560" width="180" height="20" as="geometry" />
        </mxCell>
        <mxCell id="VEWR9VQ0BqVSCsnpz4Ri-23" value="Seats:&lt;br&gt;s3" style="rounded=0;whiteSpace=wrap;html=1;" vertex="1" parent="rPtY3Esqq6ZF7neWnj23-1">
          <mxGeometry x="520" y="595" width="50" height="30" as="geometry" />
        </mxCell>
        <mxCell id="VEWR9VQ0BqVSCsnpz4Ri-24" value="Concurrency:&lt;br&gt;c3" style="rounded=0;whiteSpace=wrap;html=1;" vertex="1" parent="rPtY3Esqq6ZF7neWnj23-1">
          <mxGeometry x="570" y="595" width="80" height="30" as="geometry" />
        </mxCell>
        <mxCell id="VEWR9VQ0BqVSCsnpz4Ri-25" value="LimitationWays" style="rounded=0;whiteSpace=wrap;html=1;" vertex="1" parent="rPtY3Esqq6ZF7neWnj23-1">
          <mxGeometry x="700" y="595" width="90" height="30" as="geometry" />
        </mxCell>
        <mxCell id="VEWR9VQ0BqVSCsnpz4Ri-26" value="..." style="rounded=0;whiteSpace=wrap;html=1;" vertex="1" parent="rPtY3Esqq6ZF7neWnj23-1">
          <mxGeometry x="650" y="595" width="50" height="30" as="geometry" />
        </mxCell>
        <mxCell id="VEWR9VQ0BqVSCsnpz4Ri-27" value="" style="endArrow=none;dashed=1;html=1;dashPattern=1 3;strokeWidth=2;exitX=0;exitY=0;exitDx=0;exitDy=0;" edge="1" parent="rPtY3Esqq6ZF7neWnj23-1">
          <mxGeometry width="50" height="50" relative="1" as="geometry">
            <mxPoint x="520" y="490" as="sourcePoint" />
            <mxPoint x="520" y="290" as="targetPoint" />
          </mxGeometry>
        </mxCell>
        <mxCell id="VEWR9VQ0BqVSCsnpz4Ri-28" value="" style="endArrow=none;dashed=1;html=1;dashPattern=1 3;strokeWidth=2;exitX=0.7;exitY=1.15;exitDx=0;exitDy=0;exitPerimeter=0;" edge="1" parent="rPtY3Esqq6ZF7neWnj23-1" source="VEWR9VQ0BqVSCsnpz4Ri-41">
          <mxGeometry width="50" height="50" relative="1" as="geometry">
            <mxPoint x="789" y="580" as="sourcePoint" />
            <mxPoint x="789" y="290" as="targetPoint" />
          </mxGeometry>
        </mxCell>
        <mxCell id="VEWR9VQ0BqVSCsnpz4Ri-29" value="" style="endArrow=none;dashed=1;html=1;dashPattern=1 3;strokeWidth=2;exitX=-0.029;exitY=0.95;exitDx=0;exitDy=0;exitPerimeter=0;" edge="1" parent="rPtY3Esqq6ZF7neWnj23-1" source="VEWR9VQ0BqVSCsnpz4Ri-40">
          <mxGeometry width="50" height="50" relative="1" as="geometry">
            <mxPoint x="520" y="580" as="sourcePoint" />
            <mxPoint x="520" y="290" as="targetPoint" />
          </mxGeometry>
        </mxCell>
        <mxCell id="VEWR9VQ0BqVSCsnpz4Ri-30" value="BeginAt B" style="text;html=1;align=center;verticalAlign=middle;resizable=0;points=[];autosize=1;strokeColor=none;" vertex="1" parent="rPtY3Esqq6ZF7neWnj23-1">
          <mxGeometry x="210" y="270" width="70" height="20" as="geometry" />
        </mxCell>
        <mxCell id="VEWR9VQ0BqVSCsnpz4Ri-31" value="EndAt B" style="text;html=1;align=center;verticalAlign=middle;resizable=0;points=[];autosize=1;strokeColor=none;" vertex="1" parent="rPtY3Esqq6ZF7neWnj23-1">
          <mxGeometry x="460" y="270" width="60" height="20" as="geometry" />
        </mxCell>
        <mxCell id="VEWR9VQ0BqVSCsnpz4Ri-32" value="BeginAt C" style="text;html=1;align=center;verticalAlign=middle;resizable=0;points=[];autosize=1;strokeColor=none;" vertex="1" parent="rPtY3Esqq6ZF7neWnj23-1">
          <mxGeometry x="520" y="270" width="70" height="20" as="geometry" />
        </mxCell>
        <mxCell id="VEWR9VQ0BqVSCsnpz4Ri-33" value="EndAt C" style="text;html=1;align=center;verticalAlign=middle;resizable=0;points=[];autosize=1;strokeColor=none;" vertex="1" parent="rPtY3Esqq6ZF7neWnj23-1">
          <mxGeometry x="750" y="270" width="60" height="20" as="geometry" />
        </mxCell>
        <mxCell id="VEWR9VQ0BqVSCsnpz4Ri-34" value="" style="shape=flexArrow;endArrow=classic;html=1;" edge="1" parent="rPtY3Esqq6ZF7neWnj23-1">
          <mxGeometry width="50" height="50" relative="1" as="geometry">
            <mxPoint x="413" y="659" as="sourcePoint" />
            <mxPoint x="413" y="709" as="targetPoint" />
          </mxGeometry>
        </mxCell>
        <mxCell id="VEWR9VQ0BqVSCsnpz4Ri-48" value="合并计算" style="edgeLabel;html=1;align=center;verticalAlign=middle;resizable=0;points=[];" vertex="1" connectable="0" parent="VEWR9VQ0BqVSCsnpz4Ri-34">
          <mxGeometry x="-0.4" y="1" relative="1" as="geometry">
            <mxPoint y="-24" as="offset" />
          </mxGeometry>
        </mxCell>
        <mxCell id="VEWR9VQ0BqVSCsnpz4Ri-35" value="" style="endArrow=none;html=1;" edge="1" parent="rPtY3Esqq6ZF7neWnj23-1">
          <mxGeometry width="50" height="50" relative="1" as="geometry">
            <mxPoint x="42" y="845" as="sourcePoint" />
            <mxPoint x="802" y="845" as="targetPoint" />
          </mxGeometry>
        </mxCell>
        <mxCell id="VEWR9VQ0BqVSCsnpz4Ri-36" value="BeginAt A" style="text;html=1;align=center;verticalAlign=middle;resizable=0;points=[];autosize=1;strokeColor=none;" vertex="1" parent="rPtY3Esqq6ZF7neWnj23-1">
          <mxGeometry x="47" y="824" width="70" height="20" as="geometry" />
        </mxCell>
        <mxCell id="VEWR9VQ0BqVSCsnpz4Ri-37" value="EndAt A" style="text;html=1;align=center;verticalAlign=middle;resizable=0;points=[];autosize=1;strokeColor=none;" vertex="1" parent="rPtY3Esqq6ZF7neWnj23-1">
          <mxGeometry x="307" y="824" width="60" height="20" as="geometry" />
        </mxCell>
        <mxCell id="VEWR9VQ0BqVSCsnpz4Ri-38" value="BeginAt B" style="text;html=1;align=center;verticalAlign=middle;resizable=0;points=[];autosize=1;strokeColor=none;" vertex="1" parent="rPtY3Esqq6ZF7neWnj23-1">
          <mxGeometry x="212" y="824" width="70" height="20" as="geometry" />
        </mxCell>
        <mxCell id="VEWR9VQ0BqVSCsnpz4Ri-39" value="EndAt B" style="text;html=1;align=center;verticalAlign=middle;resizable=0;points=[];autosize=1;strokeColor=none;" vertex="1" parent="rPtY3Esqq6ZF7neWnj23-1">
          <mxGeometry x="462" y="824" width="60" height="20" as="geometry" />
        </mxCell>
        <mxCell id="VEWR9VQ0BqVSCsnpz4Ri-40" value="BeginAt C" style="text;html=1;align=center;verticalAlign=middle;resizable=0;points=[];autosize=1;strokeColor=none;" vertex="1" parent="rPtY3Esqq6ZF7neWnj23-1">
          <mxGeometry x="522" y="824" width="70" height="20" as="geometry" />
        </mxCell>
        <mxCell id="VEWR9VQ0BqVSCsnpz4Ri-41" value="EndAt C" style="text;html=1;align=center;verticalAlign=middle;resizable=0;points=[];autosize=1;strokeColor=none;" vertex="1" parent="rPtY3Esqq6ZF7neWnj23-1">
          <mxGeometry x="752" y="824" width="60" height="20" as="geometry" />
        </mxCell>
        <mxCell id="VEWR9VQ0BqVSCsnpz4Ri-42" value="" style="rounded=1;whiteSpace=wrap;html=1;" vertex="1" parent="rPtY3Esqq6ZF7neWnj23-1">
          <mxGeometry x="80" y="750" width="170" height="60" as="geometry" />
        </mxCell>
        <mxCell id="VEWR9VQ0BqVSCsnpz4Ri-43" value="&lt;span&gt;Company Privilege Contract A’&lt;/span&gt;" style="text;html=1;align=center;verticalAlign=middle;resizable=0;points=[];autosize=1;strokeColor=none;" vertex="1" parent="rPtY3Esqq6ZF7neWnj23-1">
          <mxGeometry x="74" y="730" width="180" height="20" as="geometry" />
        </mxCell>
        <mxCell id="VEWR9VQ0BqVSCsnpz4Ri-44" value="Seats: s1" style="rounded=0;whiteSpace=wrap;html=1;" vertex="1" parent="rPtY3Esqq6ZF7neWnj23-1">
          <mxGeometry x="80" y="765" width="40" height="30" as="geometry" />
        </mxCell>
        <mxCell id="VEWR9VQ0BqVSCsnpz4Ri-45" value="Concurrency:&lt;br&gt;c1" style="rounded=0;whiteSpace=wrap;html=1;" vertex="1" parent="rPtY3Esqq6ZF7neWnj23-1">
          <mxGeometry x="120" y="765" width="80" height="30" as="geometry" />
        </mxCell>
        <mxCell id="VEWR9VQ0BqVSCsnpz4Ri-46" value="Limitation&lt;br&gt;Ways" style="rounded=0;whiteSpace=wrap;html=1;" vertex="1" parent="rPtY3Esqq6ZF7neWnj23-1">
          <mxGeometry x="200" y="765" width="50" height="30" as="geometry" />
        </mxCell>
        <mxCell id="VEWR9VQ0BqVSCsnpz4Ri-49" value="" style="rounded=1;whiteSpace=wrap;html=1;" vertex="1" parent="rPtY3Esqq6ZF7neWnj23-1">
          <mxGeometry x="251" y="750" width="99" height="60" as="geometry" />
        </mxCell>
        <mxCell id="VEWR9VQ0BqVSCsnpz4Ri-50" value="&lt;span&gt;CPC B’&lt;/span&gt;" style="text;html=1;align=center;verticalAlign=middle;resizable=0;points=[];autosize=1;strokeColor=none;" vertex="1" parent="rPtY3Esqq6ZF7neWnj23-1">
          <mxGeometry x="280" y="730" width="50" height="20" as="geometry" />
        </mxCell>
        <mxCell id="VEWR9VQ0BqVSCsnpz4Ri-51" value="s1+s2" style="rounded=0;whiteSpace=wrap;html=1;" vertex="1" parent="rPtY3Esqq6ZF7neWnj23-1">
          <mxGeometry x="251" y="765" width="39" height="30" as="geometry" />
        </mxCell>
        <mxCell id="VEWR9VQ0BqVSCsnpz4Ri-52" value="c1+c2" style="rounded=0;whiteSpace=wrap;html=1;" vertex="1" parent="rPtY3Esqq6ZF7neWnj23-1">
          <mxGeometry x="290" y="765" width="39" height="30" as="geometry" />
        </mxCell>
        <mxCell id="VEWR9VQ0BqVSCsnpz4Ri-53" value="lws" style="rounded=0;whiteSpace=wrap;html=1;" vertex="1" parent="rPtY3Esqq6ZF7neWnj23-1">
          <mxGeometry x="329" y="765" width="20" height="30" as="geometry" />
        </mxCell>
        <mxCell id="VEWR9VQ0BqVSCsnpz4Ri-55" value="" style="rounded=1;whiteSpace=wrap;html=1;" vertex="1" parent="rPtY3Esqq6ZF7neWnj23-1">
          <mxGeometry x="349" y="750" width="171" height="60" as="geometry" />
        </mxCell>
        <mxCell id="VEWR9VQ0BqVSCsnpz4Ri-56" value="&lt;span&gt;CPC B’&#39;&lt;/span&gt;" style="text;html=1;align=center;verticalAlign=middle;resizable=0;points=[];autosize=1;strokeColor=none;" vertex="1" parent="rPtY3Esqq6ZF7neWnj23-1">
          <mxGeometry x="384" y="730" width="60" height="20" as="geometry" />
        </mxCell>
        <mxCell id="VEWR9VQ0BqVSCsnpz4Ri-57" value="s2" style="rounded=0;whiteSpace=wrap;html=1;" vertex="1" parent="rPtY3Esqq6ZF7neWnj23-1">
          <mxGeometry x="349" y="765" width="39" height="30" as="geometry" />
        </mxCell>
        <mxCell id="VEWR9VQ0BqVSCsnpz4Ri-58" value="c2" style="rounded=0;whiteSpace=wrap;html=1;" vertex="1" parent="rPtY3Esqq6ZF7neWnj23-1">
          <mxGeometry x="388" y="765" width="39" height="30" as="geometry" />
        </mxCell>
        <mxCell id="VEWR9VQ0BqVSCsnpz4Ri-62" value="LimitationWays" style="rounded=0;whiteSpace=wrap;html=1;" vertex="1" parent="rPtY3Esqq6ZF7neWnj23-1">
          <mxGeometry x="427" y="765" width="83" height="30" as="geometry" />
        </mxCell>
        <mxCell id="VEWR9VQ0BqVSCsnpz4Ri-63" value="" style="rounded=1;whiteSpace=wrap;html=1;" vertex="1" parent="rPtY3Esqq6ZF7neWnj23-1">
          <mxGeometry x="520" y="750" width="270" height="60" as="geometry" />
        </mxCell>
        <mxCell id="VEWR9VQ0BqVSCsnpz4Ri-64" value="&lt;span&gt;Company Privilege Contract C&lt;/span&gt;" style="text;html=1;align=center;verticalAlign=middle;resizable=0;points=[];autosize=1;strokeColor=none;" vertex="1" parent="rPtY3Esqq6ZF7neWnj23-1">
          <mxGeometry x="570" y="730" width="180" height="20" as="geometry" />
        </mxCell>
        <mxCell id="VEWR9VQ0BqVSCsnpz4Ri-65" value="Seats:&lt;br&gt;s3" style="rounded=0;whiteSpace=wrap;html=1;" vertex="1" parent="rPtY3Esqq6ZF7neWnj23-1">
          <mxGeometry x="520" y="765" width="50" height="30" as="geometry" />
        </mxCell>
        <mxCell id="VEWR9VQ0BqVSCsnpz4Ri-66" value="Concurrency:&lt;br&gt;c3" style="rounded=0;whiteSpace=wrap;html=1;" vertex="1" parent="rPtY3Esqq6ZF7neWnj23-1">
          <mxGeometry x="570" y="765" width="80" height="30" as="geometry" />
        </mxCell>
        <mxCell id="VEWR9VQ0BqVSCsnpz4Ri-67" value="LimitationWays" style="rounded=0;whiteSpace=wrap;html=1;" vertex="1" parent="rPtY3Esqq6ZF7neWnj23-1">
          <mxGeometry x="700" y="765" width="90" height="30" as="geometry" />
        </mxCell>
        <mxCell id="VEWR9VQ0BqVSCsnpz4Ri-68" value="..." style="rounded=0;whiteSpace=wrap;html=1;" vertex="1" parent="rPtY3Esqq6ZF7neWnj23-1">
          <mxGeometry x="650" y="765" width="50" height="30" as="geometry" />
        </mxCell>
        <mxCell id="VEWR9VQ0BqVSCsnpz4Ri-70" value="" style="pointerEvents=1;shadow=0;dashed=0;html=1;strokeColor=none;fillColor=#505050;labelPosition=center;verticalLabelPosition=bottom;verticalAlign=top;outlineConnect=0;align=center;shape=mxgraph.office.users.tenant_admin;" vertex="1" parent="rPtY3Esqq6ZF7neWnj23-1">
          <mxGeometry x="386" y="30" width="56" height="58" as="geometry" />
        </mxCell>
        <mxCell id="VEWR9VQ0BqVSCsnpz4Ri-71" value="" style="shape=flexArrow;endArrow=classic;html=1;" edge="1" parent="rPtY3Esqq6ZF7neWnj23-1">
          <mxGeometry width="50" height="50" relative="1" as="geometry">
            <mxPoint x="418.5" y="913" as="sourcePoint" />
            <mxPoint x="418.5" y="963" as="targetPoint" />
          </mxGeometry>
        </mxCell>
        <mxCell id="VEWR9VQ0BqVSCsnpz4Ri-72" value="显示权限列表" style="edgeLabel;html=1;align=center;verticalAlign=middle;resizable=0;points=[];" vertex="1" connectable="0" parent="VEWR9VQ0BqVSCsnpz4Ri-71">
          <mxGeometry x="-0.4" y="1" relative="1" as="geometry">
            <mxPoint y="-24" as="offset" />
          </mxGeometry>
        </mxCell>
        <mxCell id="VEWR9VQ0BqVSCsnpz4Ri-75" value="" style="shape=flexArrow;endArrow=classic;html=1;" edge="1" parent="rPtY3Esqq6ZF7neWnj23-1">
          <mxGeometry width="50" height="50" relative="1" as="geometry">
            <mxPoint x="414" y="130" as="sourcePoint" />
            <mxPoint x="414" y="180" as="targetPoint" />
            <Array as="points">
              <mxPoint x="414" y="130" />
            </Array>
          </mxGeometry>
        </mxCell>
        <mxCell id="VEWR9VQ0BqVSCsnpz4Ri-76" value="配置" style="edgeLabel;html=1;align=center;verticalAlign=middle;resizable=0;points=[];" vertex="1" connectable="0" parent="VEWR9VQ0BqVSCsnpz4Ri-75">
          <mxGeometry x="-0.4" y="1" relative="1" as="geometry">
            <mxPoint y="-24" as="offset" />
          </mxGeometry>
        </mxCell>
        <mxCell id="VEWR9VQ0BqVSCsnpz4Ri-77" value="" style="shape=image;html=1;verticalAlign=top;verticalLabelPosition=bottom;labelBackgroundColor=#ffffff;imageAspect=0;aspect=fixed;image=https://cdn4.iconfinder.com/data/icons/internet-security-flat-2/32/Internet_Security_Browser_webpage_website_web_page-128.png" vertex="1" parent="rPtY3Esqq6ZF7neWnj23-1">
          <mxGeometry x="360" y="970" width="120" height="120" as="geometry" />
        </mxCell>
      </root>
    </mxGraphModel>
  </diagram>
</mxfile>
